<mxfile host="drawio-plugin" modified="2024-02-03T04:12:05.408Z" agent="5.0 (Macintosh; Intel Mac OS X 10_15_7) AppleWebKit/537.36 (KHTML, like Gecko) Chrome/111.0.0.0 Safari/537.36" version="20.5.3" etag="upMKuk-ghej7ilVjCQV5" type="embed"><diagram id="syJddrlzK6n9wqw-LOvW" name="Page-1"><mxGraphModel dx="1202" dy="795" grid="0" gridSize="10" guides="1" tooltips="1" connect="1" arrows="1" fold="1" page="0" pageScale="1" pageWidth="850" pageHeight="1100" math="0" shadow="0"><root><mxCell id="0"/><mxCell id="1" parent="0"/></root></mxGraphModel></diagram></mxfile>